<?xml version="1.0" standalone="no"?>
<!DOCTYPE svg PUBLIC "-//W3C//DTD SVG 20010904//EN"
 "http://www.w3.org/TR/2001/REC-SVG-20010904/DTD/svg10.dtd">
<svg version="1.0" xmlns="http://www.w3.org/2000/svg"
 width="16.000000pt" height="16.000000pt" viewBox="0 0 16.000000 16.000000"
 preserveAspectRatio="xMidYMid meet">
<metadata>
Created by potrace 1.11, written by Peter Selinger 2001-2013
</metadata>
<g transform="translate(0.000000,16.000000) scale(0.001067,-0.001067)"
fill="#000000" stroke="none">
<path d="M9311 12698 c-19 -5 -43 -7 -53 -5 -10 3 -18 2 -18 -2 0 -4 -12 -7
-27 -8 -16 -1 -48 -4 -73 -8 -25 -4 -55 -8 -67 -9 -13 0 -23 -3 -23 -7 0 -5
-142 -33 -170 -33 -8 0 -17 -3 -20 -7 -3 -4 -25 -10 -50 -13 -25 -3 -63 -10
-85 -16 -56 -15 -77 -19 -111 -23 -17 -2 -34 -6 -39 -9 -6 -3 -28 -9 -50 -12
-22 -4 -47 -8 -55 -11 -8 -2 -27 -7 -42 -10 -16 -3 -38 -7 -50 -10 -13 -2 -35
-6 -50 -9 -15 -2 -31 -7 -35 -9 -5 -3 -29 -8 -56 -11 -26 -4 -57 -10 -70 -14
-12 -5 -29 -8 -37 -7 -8 1 -19 -2 -25 -6 -5 -4 -26 -9 -45 -12 -19 -3 -69 -13
-110 -22 -41 -10 -85 -18 -97 -18 -13 -1 -23 -4 -23 -7 0 -4 -6 -7 -12 -7 -7
0 -26 -4 -43 -8 -16 -4 -40 -7 -52 -8 -13 -1 -23 -4 -23 -7 0 -3 -10 -6 -22
-7 -13 -1 -34 -4 -48 -7 -14 -3 -38 -9 -54 -12 -16 -2 -32 -7 -36 -9 -6 -4
-27 -9 -85 -20 -16 -3 -37 -8 -45 -11 -8 -4 -24 -8 -35 -10 -11 -1 -31 -6 -45
-9 -14 -3 -32 -8 -40 -10 -8 -2 -15 -4 -15 -5 0 -2 -56 -11 -77 -13 -10 -1
-18 -4 -18 -7 0 -4 -6 -7 -12 -8 -7 0 -31 -6 -53 -12 -22 -6 -53 -13 -70 -16
-16 -3 -38 -10 -47 -15 -9 -5 -21 -9 -25 -8 -4 1 -10 0 -13 -1 -3 -1 -36 -4
-75 -5 -91 -5 -118 -9 -190 -29 -33 -9 -67 -19 -75 -21 -8 -2 -15 -4 -15 -5 0
-1 -7 -3 -15 -5 -8 -2 -35 -8 -60 -14 -25 -7 -58 -14 -75 -16 -35 -6 -70 -13
-70 -15 0 -1 -7 -3 -15 -5 -36 -8 -86 -18 -105 -20 -11 -2 -20 -4 -20 -5 0 -1
-9 -3 -20 -5 -11 -2 -32 -6 -47 -9 -16 -3 -39 -8 -53 -11 -14 -3 -36 -7 -50
-10 -14 -3 -35 -7 -47 -9 -13 -3 -34 -7 -48 -10 -14 -3 -41 -9 -60 -12 -19 -4
-44 -9 -55 -11 -39 -8 -80 -15 -105 -18 -14 -2 -25 -4 -25 -5 0 -2 -9 -4 -20
-5 -11 -2 -31 -5 -45 -8 -14 -3 -35 -8 -46 -11 -12 -2 -37 -7 -55 -10 -19 -3
-45 -8 -59 -11 -14 -3 -36 -7 -50 -10 -14 -3 -36 -7 -50 -10 -25 -6 -43 -10
-90 -19 -14 -3 -36 -8 -50 -11 -14 -3 -39 -7 -56 -9 -17 -2 -35 -5 -40 -8 -9
-6 -42 -13 -99 -23 -16 -3 -41 -7 -55 -11 -14 -3 -34 -7 -45 -9 -11 -2 -40 -8
-64 -13 -25 -6 -49 -9 -53 -6 -4 3 -8 0 -8 -6 0 -6 -6 -10 -12 -9 -27 3 -37
-2 -43 -22 -4 -12 -12 -18 -21 -15 -8 3 -14 1 -14 -4 0 -6 -6 -10 -14 -10 -7
0 -13 -10 -13 -22 -1 -56 -4 -68 -18 -68 -8 0 -14 -3 -14 -7 1 -5 0 -12 -1
-18 -2 -5 -4 -395 -5 -865 -2 -470 -5 -893 -8 -940 -3 -47 -8 -132 -12 -190
-8 -122 -8 -466 0 -625 3 -60 8 -146 10 -190 2 -44 8 -141 11 -215 7 -124 10
-935 5 -1145 -1 -49 1 -292 5 -540 8 -566 9 -1032 1 -1200 -22 -454 -26 -567
-32 -775 -2 -96 -7 -222 -10 -280 -3 -58 -7 -150 -10 -205 -8 -169 -5 -600 5
-600 13 0 17 -311 6 -485 -8 -118 -10 -335 -5 -392 3 -24 9 -38 18 -38 8 0 26
-12 41 -28 15 -15 33 -28 41 -30 8 -2 15 -7 17 -12 8 -21 60 -79 66 -73 3 3 6
1 6 -6 0 -7 5 -9 10 -6 6 3 10 1 10 -4 0 -6 3 -10 8 -10 19 3 33 -2 27 -11 -3
-6 1 -7 9 -4 9 3 16 2 16 -4 0 -5 17 -13 37 -17 20 -4 59 -18 85 -31 26 -13
48 -21 48 -18 0 4 7 1 15 -6 27 -22 161 -87 216 -104 30 -10 63 -21 74 -26 11
-5 38 -12 60 -16 46 -9 38 -7 93 -24 23 -7 42 -17 42 -22 0 -5 4 -7 8 -4 5 3
19 -4 30 -15 12 -11 22 -18 22 -15 0 2 28 -9 62 -26 58 -28 70 -30 173 -30
116 1 216 7 275 16 19 3 56 8 82 10 26 3 51 7 55 9 5 3 26 8 48 11 22 4 48 9
57 12 9 3 32 7 50 9 18 2 69 14 113 26 44 11 85 22 90 23 6 1 15 4 20 8 13 7
78 22 88 20 4 -1 7 3 7 10 0 6 3 9 6 5 3 -3 23 1 45 8 22 8 40 14 42 14 5 -1
63 21 77 29 8 5 23 8 33 6 9 -1 17 2 17 7 0 5 3 8 8 7 8 -1 23 4 104 37 31 13
59 21 62 18 3 -4 6 -1 6 6 0 7 4 10 8 7 5 -3 21 4 38 15 16 10 26 19 22 19 -3
0 0 26 7 57 7 32 16 132 19 223 3 91 8 185 10 210 2 25 7 95 11 155 3 61 8
124 10 140 11 79 5 511 -10 790 -5 90 -13 351 -20 620 -6 250 -6 1138 0 1205
3 30 8 75 11 100 2 25 7 61 8 80 2 19 5 35 6 35 1 0 3 17 6 38 4 40 20 78 32
76 4 -1 9 0 12 1 5 2 10 3 63 14 15 3 37 8 50 11 12 3 31 7 42 9 11 2 49 12
85 21 83 22 94 24 170 39 8 1 24 5 35 9 11 3 34 9 50 12 17 2 41 7 55 11 14 3
32 7 40 8 8 2 33 8 55 14 22 6 51 13 65 16 14 2 32 7 40 10 8 3 26 8 40 10 14
3 36 8 50 11 14 3 36 8 50 10 14 2 40 8 59 14 18 6 36 10 40 9 3 0 8 1 11 2 3
1 12 3 20 5 17 4 25 5 165 35 55 11 118 26 140 32 22 5 51 12 65 13 14 2 45 8
69 14 25 5 49 8 53 5 4 -3 8 0 8 6 0 6 6 10 13 9 6 -1 28 1 47 5 19 4 42 8 50
10 8 1 29 5 45 9 57 13 112 22 172 31 23 3 62 10 87 16 25 5 49 10 53 9 5 -1
10 0 13 1 14 5 50 10 91 13 25 2 51 7 56 10 6 4 33 9 60 12 90 9 114 13 120
18 6 7 12 40 18 107 12 148 16 188 21 210 5 27 15 104 17 133 1 9 4 17 7 17 3
0 7 10 7 23 1 12 4 38 7 57 15 93 20 180 20 350 -1 170 -4 231 -19 300 -2 14
-10 50 -16 80 -6 30 -15 60 -19 65 -4 6 -6 18 -5 28 2 9 -1 14 -7 11 -5 -3 -8
2 -6 12 2 11 -6 23 -21 30 -13 7 -31 25 -42 40 -10 15 -25 29 -35 30 -9 2 -21
9 -25 16 -5 7 -9 9 -9 4 0 -5 -8 -2 -17 6 -10 8 -37 26 -60 38 -24 13 -43 28
-43 32 0 5 -4 6 -10 3 -5 -3 -10 -1 -10 5 0 6 -4 9 -10 5 -5 -3 -18 3 -30 15
-11 11 -20 18 -20 16 0 -3 -13 0 -30 5 -16 6 -30 15 -30 21 0 5 -4 7 -9 4 -4
-3 -28 4 -52 16 -24 12 -48 23 -54 24 -23 5 -135 49 -193 76 -35 16 -75 32
-89 34 -15 3 -52 19 -82 36 -31 16 -65 32 -75 34 -11 2 -32 15 -47 30 -23 22
-37 27 -81 27 -44 0 -103 -7 -103 -13 0 -1 -7 -3 -15 -5 -8 -1 -35 -9 -60 -18
-25 -8 -58 -17 -75 -20 -16 -3 -45 -10 -62 -16 -18 -5 -33 -7 -33 -4 0 3 -7 0
-15 -7 -9 -7 -18 -10 -21 -8 -3 3 -32 -3 -65 -13 -34 -11 -65 -17 -70 -13 -5
3 -9 1 -9 -3 0 -5 -10 -9 -22 -10 -13 -1 -34 -4 -48 -7 -34 -8 -81 -18 -105
-21 -11 -2 -20 -4 -20 -5 0 -1 -13 -3 -30 -5 -16 -1 -41 -6 -55 -10 -14 -4
-34 -9 -45 -11 -11 -1 -35 -5 -52 -8 -76 -14 -99 -18 -123 -21 -14 -3 -36 -7
-50 -10 -14 -3 -41 -8 -60 -11 -19 -2 -48 -7 -65 -10 -16 -2 -51 -7 -76 -10
l-46 -5 0 43 c-1 41 -10 205 -18 313 -26 353 -22 871 8 1018 4 22 37 45 60 41
9 -1 17 1 17 6 0 6 51 18 85 21 2 0 20 6 40 15 19 8 35 12 35 9 0 -2 12 0 26
5 14 6 40 12 57 15 18 2 59 11 92 20 33 8 74 17 90 20 29 4 52 9 105 20 53 12
76 17 95 19 12 1 25 5 31 8 5 4 22 5 37 4 15 -2 30 0 32 4 3 4 26 11 52 15 27
5 55 10 63 12 16 3 79 13 120 18 14 2 25 4 25 5 0 2 29 8 65 15 44 7 70 14 78
19 8 5 50 15 82 20 8 1 32 8 52 15 21 7 42 10 48 6 5 -3 10 -1 10 6 0 6 8 9
20 6 11 -3 20 -1 20 5 0 5 6 8 13 5 6 -2 19 -1 27 3 8 5 31 11 50 14 19 3 45
8 58 11 12 3 32 7 45 10 12 2 54 11 92 19 39 8 85 18 103 21 17 3 47 7 65 10
17 3 43 10 57 14 14 4 35 7 48 6 12 -1 22 1 22 5 0 3 10 6 23 7 27 1 120 14
127 18 3 2 24 6 46 9 22 4 51 9 64 11 37 8 70 13 120 20 24 4 47 8 50 10 5 3
78 14 130 20 14 2 25 4 25 5 0 1 14 4 30 5 17 2 50 8 74 14 24 7 46 9 49 6 3
-2 10 -1 16 4 6 6 34 12 61 15 28 3 73 12 102 20 28 7 54 11 57 8 3 -3 6 -1 6
5 0 9 42 23 82 27 13 2 22 17 24 44 2 15 5 45 9 67 3 22 7 49 8 60 2 11 5 25
8 30 3 6 5 27 4 48 -1 20 1 37 4 37 3 0 5 21 3 48 -4 72 -6 86 -16 94 -10 7
-18 158 -8 158 12 0 15 78 14 305 -1 275 -9 408 -37 620 -2 17 -4 34 -4 39 -1
4 -12 6 -26 4 -14 -3 -26 0 -27 6 0 6 -2 16 -2 21 -3 22 -18 35 -42 35 -13 0
-36 13 -51 28 -16 16 -74 46 -138 72 -60 24 -115 47 -121 52 -6 4 -14 5 -17 1
-4 -3 -7 0 -7 7 0 7 -3 11 -6 7 -4 -3 -21 1 -38 10 -17 10 -34 17 -38 18 -4 0
-15 7 -25 15 -10 9 -21 16 -26 18 -18 4 -73 36 -78 44 -3 5 -9 10 -12 9 -17
-1 -66 26 -60 33 4 4 0 4 -10 0 -10 -3 -17 -1 -17 6 0 6 -4 8 -10 5 -5 -3 -10
-1 -10 4 0 6 -3 10 -7 9 -16 -3 -73 29 -66 37 5 4 1 6 -8 2 -10 -3 -29 6 -48
23 -17 16 -31 27 -31 24 0 -2 -17 5 -37 16 -41 22 -60 23 -112 8z m-64 -255
c0 -16 3 -44 7 -63 7 -35 13 -106 22 -270 7 -123 7 -369 0 -490 -8 -141 -23
-307 -30 -355 -2 -11 -4 -26 -5 -33 0 -7 -5 -10 -11 -7 -5 3 -10 2 -10 -2 0
-5 -8 -9 -17 -10 -17 -1 -45 -6 -113 -19 -14 -3 -36 -7 -50 -9 -14 -1 -25 -4
-25 -5 0 -2 -34 -9 -75 -15 -94 -14 -152 -24 -184 -32 -28 -6 -106 -19 -181
-29 -11 -1 -20 -3 -20 -4 0 -3 -37 -9 -85 -15 -25 -3 -58 -8 -75 -11 -16 -4
-39 -7 -50 -8 -11 -1 -24 -4 -30 -7 -5 -4 -20 -5 -32 -4 -13 1 -23 -1 -23 -5
0 -3 -10 -7 -22 -7 -24 -1 -83 -11 -83 -13 0 -2 -76 -20 -105 -25 -8 -1 -22
-5 -30 -8 -8 -4 -26 -9 -40 -11 -41 -8 -71 -15 -90 -21 -10 -3 -33 -8 -51 -10
-78 -11 -121 -23 -131 -38 -4 -6 -31 -11 -60 -12 -29 0 -71 -6 -93 -12 -22 -6
-56 -14 -75 -17 -19 -3 -46 -8 -60 -11 -59 -14 -77 -17 -110 -20 -19 -2 -35
-4 -35 -6 0 -2 -23 -5 -95 -13 -30 -4 -73 -9 -95 -12 -22 -3 -51 -7 -65 -8
-14 -2 -32 -6 -40 -9 -8 -3 -35 -11 -60 -18 -60 -16 -67 -18 -87 -23 -10 -3
-19 -5 -20 -6 -2 -2 -7 -4 -13 -5 -5 -1 -12 -4 -15 -5 -3 -1 -9 -4 -15 -5 -5
-1 -11 -3 -12 -5 -2 -1 -11 -3 -20 -6 -27 -6 -41 -10 -58 -17 -29 -10 -115
-36 -140 -41 -14 -3 -51 -12 -82 -19 -32 -8 -58 -12 -58 -9 0 2 -6 0 -12 -5
-15 -11 -56 -10 -84 2 -33 14 -42 14 -48 -2 -3 -8 -11 -11 -16 -8 -6 4 -9 3
-8 -2 4 -14 -13 -53 -23 -53 -6 0 -7 -4 -4 -10 3 -5 3 -10 -2 -10 -4 0 -9 -12
-10 -27 -5 -64 -11 -118 -13 -118 -1 0 -4 -34 -5 -75 -2 -41 -6 -111 -10 -155
-8 -91 -8 -701 -1 -815 6 -91 16 -251 23 -380 3 -52 6 -237 6 -412 1 -174 5
-314 9 -312 8 5 58 -43 58 -55 0 -5 10 -7 23 -5 12 2 38 6 57 9 59 9 65 10 76
17 10 7 58 19 82 20 6 1 12 5 12 10 0 5 10 9 23 8 12 -1 27 -1 32 0 6 2 15 4
20 5 6 2 12 4 15 5 3 1 14 4 25 6 45 11 71 16 93 17 12 1 22 5 22 9 0 3 8 5
18 4 9 -2 19 0 22 4 3 4 25 10 50 14 25 3 74 12 110 20 35 8 68 12 72 10 4 -3
8 -1 8 4 0 5 6 9 13 9 21 1 89 13 97 18 4 2 22 7 41 9 19 3 48 8 64 11 17 4
44 8 60 11 32 4 61 9 113 18 17 3 44 8 60 11 15 3 36 7 47 9 24 4 102 18 130
22 11 2 30 5 41 8 12 2 37 7 55 10 19 3 45 8 59 11 14 3 39 7 55 10 17 3 48 8
70 12 22 4 52 7 68 7 15 1 27 4 27 8 0 4 8 7 18 7 18 1 67 8 67 11 0 1 7 3 15
5 8 2 26 6 40 9 14 3 36 8 50 11 14 3 38 8 54 11 16 2 32 7 35 9 7 4 94 17
129 19 12 0 22 4 22 8 0 4 8 6 18 6 9 0 31 3 47 6 74 18 83 14 76 -26 0 -5 4
-8 10 -8 6 0 9 -7 6 -15 -4 -8 -1 -17 4 -21 6 -3 9 -15 6 -25 -3 -11 -2 -19 2
-19 4 0 8 -6 8 -12 1 -7 4 -35 8 -63 13 -90 19 -305 10 -390 -2 -27 -7 -70 -9
-95 -7 -67 -22 -190 -31 -255 -3 -16 -7 -46 -9 -65 -3 -19 -8 -55 -11 -80 -4
-25 -7 -51 -7 -57 -1 -7 -11 -12 -22 -12 -20 1 -89 -7 -151 -17 -16 -3 -41 -6
-55 -8 -14 -2 -43 -7 -65 -10 -22 -3 -53 -8 -70 -12 -16 -3 -41 -7 -55 -9 -14
-2 -25 -5 -25 -6 0 -1 -9 -3 -20 -5 -50 -8 -90 -16 -109 -23 -12 -4 -30 -7
-41 -7 -11 1 -22 -2 -25 -6 -3 -4 -23 -9 -45 -12 -22 -2 -40 -5 -40 -6 0 -2
-33 -10 -60 -15 -11 -2 -32 -8 -47 -14 -15 -6 -35 -8 -43 -5 -8 4 -15 2 -15
-4 0 -5 -17 -12 -37 -15 -21 -3 -49 -9 -63 -12 -14 -4 -32 -8 -40 -9 -8 -1
-25 -6 -37 -10 -12 -4 -30 -9 -40 -11 -10 -2 -32 -8 -50 -14 -17 -5 -34 -7
-37 -4 -3 3 -12 0 -21 -7 -8 -7 -15 -10 -15 -7 0 3 -14 2 -32 -3 -17 -5 -47
-12 -67 -15 -20 -3 -48 -8 -61 -10 -14 -3 -36 -7 -50 -10 -14 -2 -38 -7 -55
-9 -16 -3 -41 -8 -55 -11 -14 -3 -36 -8 -50 -10 -29 -5 -87 -16 -157 -31 -15
-3 -40 -6 -55 -7 -15 -1 -28 -5 -28 -9 0 -3 -8 -5 -17 -3 -10 1 -24 -2 -31 -8
-7 -5 -15 -7 -18 -5 -3 3 -26 0 -51 -8 -25 -8 -49 -11 -53 -9 -5 3 -12 0 -15
-6 -4 -5 -13 -8 -21 -5 -8 3 -14 0 -14 -6 0 -6 -2 -9 -5 -6 -3 3 -36 -3 -73
-14 -37 -11 -74 -21 -82 -23 -8 -2 -26 -8 -40 -13 -25 -10 -31 -11 -62 -20
-10 -2 -19 -8 -19 -13 -2 -13 -6 -29 -9 -31 -4 -6 -21 -92 -22 -115 -1 -7 -4
-13 -8 -13 -4 0 -6 -14 -5 -30 1 -17 -1 -33 -5 -35 -4 -3 -6 -18 -4 -35 2 -16
0 -30 -4 -30 -4 0 -8 -26 -9 -58 0 -31 -4 -118 -7 -192 -8 -158 -9 -1355 -2
-1480 3 -47 8 -107 11 -135 22 -185 22 -705 0 -1170 -3 -66 -7 -167 -9 -225
-2 -58 -5 -107 -6 -110 -1 -3 -2 -22 -2 -42 1 -28 -4 -41 -18 -48 -11 -6 -20
-8 -20 -5 0 3 -13 -1 -30 -10 -16 -8 -33 -16 -37 -16 -5 -1 -19 -5 -32 -10
-13 -5 -34 -10 -47 -11 -13 -1 -24 -6 -24 -9 0 -4 -15 -11 -32 -14 -18 -4 -52
-16 -75 -27 -23 -11 -48 -20 -55 -22 -7 -1 -18 -5 -24 -8 -13 -8 -72 -22 -139
-31 -12 -2 -26 -6 -32 -10 -5 -3 -25 -7 -44 -9 -19 -1 -39 -5 -44 -9 -6 -5
-29 -10 -50 -13 -22 -2 -40 -5 -40 -6 0 -1 -11 -3 -25 -5 -14 -2 -38 -7 -55
-11 -16 -4 -47 -7 -67 -8 -21 -1 -38 -3 -38 -6 0 -4 -10 -6 -22 -7 -13 -1 -66
-5 -118 -9 -52 -4 -120 -8 -150 -8 l-55 -1 1 70 c1 39 5 113 8 165 10 130 11
466 3 515 -4 22 -10 54 -12 70 -23 129 -35 461 -22 590 12 115 18 150 27 153
5 2 6 10 3 18 -3 8 -1 14 4 14 6 0 9 15 7 33 -26 283 -24 462 11 777 3 30 8
89 12 130 8 106 7 834 -1 1080 -4 113 -9 639 -12 1170 -6 1112 -6 1093 -19
1102 -11 8 -11 295 0 588 13 348 23 1899 13 2015 -7 84 8 110 64 114 51 3 93
8 93 11 0 3 29 8 75 14 14 2 32 6 40 9 8 4 33 8 55 11 34 4 137 23 235 43 14
3 36 7 50 8 14 2 25 4 25 5 0 2 9 4 20 6 11 1 31 5 45 8 14 3 36 8 50 11 14 3
36 8 50 11 14 3 34 6 46 8 11 2 25 6 30 9 5 3 31 8 58 11 26 3 51 8 55 11 5 2
23 7 42 9 19 3 52 10 74 15 43 11 97 22 130 26 11 2 20 4 20 5 0 3 51 13 73
14 12 1 22 4 22 7 0 3 6 6 13 6 6 0 28 4 47 8 19 5 45 9 58 9 12 1 22 4 22 7
0 4 10 5 23 5 12 -1 27 0 32 3 14 7 36 12 63 14 12 0 22 4 22 8 0 4 11 6 25 4
14 -1 25 1 25 5 0 5 11 7 25 5 14 -1 25 1 25 4 0 7 27 12 73 14 15 1 27 4 27
8 0 4 26 10 58 15 65 9 74 11 85 14 9 3 15 4 57 13 19 4 46 9 60 12 14 3 36 7
50 10 14 3 35 7 48 10 12 3 31 7 43 10 11 2 30 7 42 11 12 4 31 9 42 10 11 2
38 8 59 13 22 5 44 8 48 5 4 -3 8 0 8 7 0 6 8 9 20 6 11 -3 20 -2 20 3 0 4 17
11 38 15 20 5 44 10 52 12 8 2 24 5 35 6 12 2 26 7 33 11 7 4 17 4 22 1 6 -3
10 -1 10 4 0 6 3 10 8 9 4 -1 25 4 46 10 22 6 42 9 45 7 2 -3 10 0 18 6 7 6
13 9 13 6 0 -4 17 0 38 6 20 7 44 13 52 12 8 -1 20 2 25 6 9 6 51 16 115 25
14 2 39 7 55 10 40 7 73 13 115 18 65 9 105 15 130 21 63 14 87 18 113 19 15
0 27 4 27 7 0 3 6 6 13 6 6 0 30 4 52 8 22 4 49 9 60 10 11 2 20 4 20 5 0 3
39 11 70 14 17 2 30 5 30 6 0 2 32 9 70 15 17 2 45 9 64 14 18 6 36 10 40 9 3
-1 17 2 31 6 14 4 39 9 55 11 17 2 30 4 30 5 0 4 95 22 123 24 12 0 22 5 22
10 0 4 9 6 20 3 11 -3 22 -1 25 3 3 5 13 7 23 5 9 -1 23 2 30 8 6 5 12 7 12 4
0 -2 15 -1 33 3 51 13 55 11 54 -17z m281 -71 c2 -6 10 -8 18 -5 8 3 14 0 14
-6 0 -6 7 -11 15 -11 8 0 15 -5 15 -11 0 -5 4 -8 9 -5 5 3 20 -4 35 -15 14
-11 26 -17 26 -12 0 4 7 -1 15 -11 8 -11 15 -17 15 -13 0 8 5 5 75 -39 22 -14
48 -27 58 -31 31 -10 14 -36 -28 -39 -11 -1 -33 -5 -50 -9 -16 -4 -39 -8 -50
-10 -11 -2 -20 -4 -20 -5 0 -2 -20 -6 -65 -14 -19 -4 -44 -10 -55 -13 -33 -11
-55 -10 -57 1 -1 6 -2 31 -4 56 -1 25 -4 81 -7 126 -4 77 -4 80 16 79 12 -1
23 -7 25 -13z m640 -383 c2 -19 4 -51 5 -71 1 -21 4 -38 7 -38 3 0 6 -21 7
-47 1 -27 5 -91 9 -143 8 -114 8 -374 -1 -525 -3 -60 -6 -123 -6 -140 -1 -16
-3 -37 -6 -45 -3 -8 -7 -41 -9 -74 -1 -32 -7 -63 -13 -69 -8 -8 -11 -8 -11 1
0 7 -3 12 -7 11 -16 -2 -53 14 -53 22 0 5 -3 8 -7 7 -13 -3 -103 44 -103 53 0
5 -3 8 -7 7 -13 -4 -81 33 -108 58 -14 13 -27 22 -29 21 -3 -1 -16 8 -30 20
-14 13 -26 20 -26 16 0 -4 -7 2 -15 13 -8 10 -15 15 -15 10 0 -5 -7 -2 -16 5
-9 7 -23 14 -31 15 -8 2 -25 12 -37 23 -12 12 -29 21 -37 21 -8 1 -32 9 -54
20 -22 11 -46 19 -52 20 -7 0 -13 4 -13 10 0 5 -6 7 -14 4 -14 -5 -14 17 -1
106 14 92 8 188 -14 230 -11 22 -6 112 15 230 3 19 6 59 6 87 0 29 5 50 10 47
5 -3 14 -1 21 4 7 6 15 10 20 11 4 0 22 3 40 6 17 3 46 8 62 10 17 2 32 5 35
6 3 1 10 3 15 4 6 2 13 4 18 5 4 1 16 4 27 5 11 1 21 4 23 5 1 1 11 4 22 6 11
1 31 5 45 9 14 3 39 8 55 10 17 2 30 4 30 5 0 2 21 7 60 15 17 3 49 10 73 16
24 5 47 7 51 5 4 -3 13 -1 21 4 24 15 35 6 38 -31z m-798 -969 c4 -7 10 -11
14 -11 17 3 55 -12 50 -20 -3 -5 1 -6 9 -3 8 3 18 1 22 -5 3 -6 15 -11 25 -11
10 0 20 -3 22 -7 2 -5 32 -23 68 -42 36 -18 71 -41 78 -50 7 -9 14 -14 16 -11
2 3 30 -14 62 -37 102 -73 109 -78 118 -78 15 0 19 -25 4 -26 -7 0 -24 -3 -38
-6 -14 -3 -40 -6 -57 -7 -18 0 -33 -4 -33 -8 0 -4 -8 -7 -17 -6 -18 0 -46 -4
-113 -17 -19 -4 -49 -8 -66 -9 -17 -2 -35 -5 -40 -8 -5 -3 -31 -8 -59 -12 -52
-6 -59 -7 -190 -31 -44 -8 -93 -17 -110 -20 -56 -9 -75 -14 -84 -19 -4 -3 -23
-8 -42 -10 -19 -3 -45 -8 -59 -11 -14 -3 -32 -8 -40 -10 -8 -2 -15 -4 -15 -5
0 -2 -33 -9 -65 -15 -14 -2 -25 -4 -25 -5 0 -3 -39 -10 -85 -16 -25 -4 -57
-15 -71 -25 -17 -12 -40 -18 -60 -16 -19 2 -47 0 -64 -4 -34 -9 -80 -19 -110
-24 -11 -2 -20 -4 -20 -5 0 -2 -31 -8 -70 -14 -16 -3 -41 -8 -55 -11 -45 -10
-130 -22 -210 -30 -56 -5 -155 -22 -155 -25 0 -1 -13 -4 -29 -6 -16 -3 -43
-11 -60 -18 -17 -7 -39 -12 -49 -10 -9 1 -17 -2 -17 -7 0 -5 -6 -9 -13 -9 -8
0 -51 -12 -97 -26 -45 -14 -90 -28 -99 -29 -9 -2 -17 -4 -18 -5 -2 -2 -7 -4
-13 -5 -5 -1 -13 -4 -17 -5 -5 -2 -12 -4 -18 -5 -5 -1 -17 -5 -25 -8 -61 -24
-192 -39 -226 -27 -17 7 -32 7 -45 0 -15 -8 -32 -4 -77 18 -32 16 -76 35 -98
42 -21 7 -45 17 -51 23 -7 5 -13 6 -13 2 0 -4 -7 -1 -17 6 -9 8 -17 13 -17 11
-1 -4 -47 12 -86 30 -14 6 -34 14 -45 19 -11 4 -46 19 -78 33 -32 14 -62 26
-67 26 -6 0 -10 4 -10 10 0 5 -7 7 -15 4 -8 -4 -15 -1 -15 7 0 7 -3 9 -6 6 -4
-3 -16 -1 -28 5 -11 7 -24 12 -28 13 -12 0 -33 25 -22 26 5 0 16 2 24 4 8 2
24 6 35 8 11 3 39 10 63 17 24 6 55 13 70 15 15 2 64 14 110 25 45 11 87 18
91 15 5 -3 11 -1 13 4 1 5 21 11 43 14 22 3 62 11 88 17 27 6 52 8 57 5 4 -3
10 -1 12 4 1 5 22 11 45 14 22 4 52 8 65 11 20 5 40 8 123 21 42 7 91 16 105
20 8 2 31 7 50 11 44 8 64 12 68 14 1 2 5 3 10 4 4 1 25 7 46 14 22 6 43 9 48
6 4 -3 8 -1 8 3 0 9 9 11 60 16 14 1 28 6 31 10 3 4 22 9 42 10 21 1 37 6 37
10 0 5 6 7 13 4 6 -2 19 -1 27 3 17 9 83 22 118 24 12 1 22 4 22 8 0 4 8 7 18
7 54 3 82 7 82 13 0 4 8 7 18 6 9 0 33 3 52 7 19 3 46 7 60 8 14 1 27 5 30 8
3 4 25 9 50 12 25 4 56 9 70 12 41 9 156 26 188 29 12 0 22 3 22 7 0 3 10 6
23 6 12 1 42 5 67 9 25 4 57 7 73 8 15 0 27 4 27 7 0 4 26 10 58 14 31 5 66
10 77 11 11 2 36 5 55 8 19 3 36 6 38 7 3 2 11 4 67 14 28 4 55 9 60 11 20 5
71 14 105 20 19 3 37 8 39 10 8 7 54 -5 61 -16z m-2970 -736 c0 -3 -5 -2 -12
2 -7 4 -8 3 -4 -5 4 -6 11 -9 16 -6 5 3 15 -1 23 -9 8 -8 17 -12 21 -9 3 4 6
1 6 -5 0 -7 3 -11 8 -10 10 4 146 -55 150 -64 2 -5 8 -6 13 -2 5 3 12 -2 15
-10 3 -9 12 -16 20 -16 8 0 14 -4 14 -10 0 -5 7 -7 15 -4 8 4 15 2 15 -3 0 -6
12 -9 28 -8 27 1 61 -12 74 -30 4 -5 8 -6 8 -2 0 4 10 2 23 -5 24 -13 29 -15
53 -17 9 -1 12 -6 8 -13 -4 -7 -4 -10 1 -6 4 4 22 1 40 -7 19 -7 36 -11 39 -7
3 3 6 0 6 -6 0 -7 3 -11 8 -10 15 3 62 -15 62 -24 0 -5 4 -7 8 -4 13 8 53 -24
46 -35 -5 -9 -10 -73 -17 -234 -1 -33 -5 -64 -8 -70 -7 -12 -2 -588 5 -725 3
-52 8 -135 11 -185 3 -49 7 -114 9 -142 3 -29 2 -54 -2 -54 -4 -1 -16 -3 -27
-5 -11 -2 -33 -6 -50 -8 -16 -2 -30 -5 -30 -6 0 -2 -30 -8 -80 -16 -59 -9 -66
-10 -110 -19 -72 -14 -80 -15 -115 -21 -19 -3 -38 -8 -41 -10 -4 -2 -24 -6
-44 -10 -47 -7 -62 -11 -102 -23 -17 -5 -34 -7 -37 -4 -3 3 -11 1 -18 -5 -7
-5 -24 -12 -37 -14 l-23 -3 -4 315 c-2 173 -6 342 -8 375 -16 212 -37 687 -38
830 0 125 11 365 17 375 6 10 45 -3 45 -16z m2530 -1771 c30 -14 58 -30 62
-36 4 -7 8 -8 8 -4 0 5 6 5 13 0 6 -4 17 -8 22 -9 6 -1 24 -8 40 -15 35 -15
40 -16 59 -18 8 0 21 -7 28 -13 7 -7 18 -14 23 -15 20 -5 80 -28 93 -36 7 -5
10 -13 6 -18 -3 -5 -9 -7 -14 -4 -4 3 -23 -1 -41 -9 -19 -7 -42 -12 -51 -11
-10 2 -18 0 -18 -4 0 -4 -6 -8 -12 -9 -19 -1 -73 -10 -73 -12 0 -2 -34 -10
-60 -15 -11 -2 -20 -4 -20 -5 0 -1 -10 -3 -22 -6 -13 -2 -33 -6 -45 -8 -13 -3
-23 -5 -23 -6 0 -1 -12 -3 -26 -5 -25 -3 -25 -2 -26 68 -2 79 -7 144 -17 195
-6 31 -5 33 16 27 13 -4 48 -19 78 -32z m582 -308 c0 -8 1 -21 2 -27 1 -7 5
-16 10 -19 5 -4 9 -21 10 -38 0 -17 4 -31 7 -31 3 0 6 -6 6 -12 1 -7 5 -38 9
-68 17 -117 4 -615 -16 -615 -2 0 -12 -108 -12 -127 1 -10 -3 -20 -7 -23 -5
-2 -7 -18 -5 -34 2 -17 -1 -33 -6 -36 -6 -3 -10 -1 -10 5 0 6 -4 9 -9 5 -5 -3
-18 6 -29 20 -11 13 -22 21 -26 18 -3 -4 -17 3 -29 15 -13 12 -26 20 -29 16
-4 -3 -17 0 -30 7 -12 7 -26 12 -30 11 -5 -1 -8 3 -8 9 0 5 -4 8 -9 4 -5 -3
-12 -1 -16 5 -4 6 -10 8 -15 5 -5 -3 -23 1 -40 10 -16 8 -30 13 -30 10 0 -3
-9 -1 -21 5 -11 6 -28 13 -37 15 -9 2 -63 21 -120 44 -56 23 -109 41 -117 41
-8 0 -15 4 -15 9 0 4 -8 8 -17 8 -43 0 -54 3 -47 15 5 8 2 9 -9 5 -10 -3 -17
-2 -17 3 0 5 -7 7 -16 3 -13 -5 -15 4 -10 73 3 44 8 91 11 105 2 14 6 42 7 62
2 20 5 37 8 37 3 0 5 10 6 23 0 12 3 36 6 52 6 30 12 69 23 135 4 19 8 55 9
80 4 58 4 56 19 58 6 1 23 3 37 6 14 2 43 7 65 11 37 6 109 21 145 31 73 18
103 24 111 19 5 -4 9 -2 9 3 0 5 6 9 13 9 25 2 127 20 157 28 8 2 31 7 50 10
19 3 36 8 39 11 9 9 21 3 23 -11z m-862 -877 c0 -4 3 -8 8 -7 15 2 52 -14 52
-22 0 -5 3 -8 8 -7 14 3 102 -24 102 -32 0 -4 6 -8 13 -7 29 1 48 -4 44 -10
-3 -5 6 -9 20 -10 14 0 29 -6 33 -13 4 -6 11 -10 16 -9 21 4 35 -2 29 -11 -4
-6 -3 -10 2 -9 15 4 83 -13 89 -22 3 -5 14 -9 25 -9 10 0 19 -5 19 -11 0 -5 4
-8 8 -5 5 3 20 -1 35 -9 15 -8 27 -12 27 -10 0 2 22 -5 49 -15 49 -17 116 -58
108 -66 -2 -2 -21 -6 -43 -9 -21 -4 -50 -8 -64 -11 -14 -2 -38 -6 -55 -9 -16
-3 -52 -10 -80 -15 -27 -5 -61 -11 -75 -14 -14 -2 -57 -12 -97 -21 -39 -9 -82
-18 -95 -19 -12 -2 -30 -6 -38 -9 -14 -5 -93 -24 -169 -41 -10 -2 -35 -9 -55
-14 -20 -6 -36 -8 -36 -5 0 3 -6 1 -13 -5 -7 -6 -22 -10 -32 -8 -11 2 -22 -1
-26 -5 -3 -5 -21 -11 -40 -13 -18 -3 -35 -6 -36 -7 -2 -1 -7 -3 -13 -4 -5 -1
-11 -4 -12 -5 -2 -1 -12 -4 -23 -6 -11 -2 -39 -8 -63 -14 -24 -6 -47 -8 -53
-5 -5 4 -9 2 -9 -3 0 -5 -6 -9 -12 -9 -7 -1 -31 -4 -53 -8 -22 -4 -51 -8 -65
-10 -14 -2 -25 -4 -25 -5 0 -2 -9 -4 -20 -6 -35 -5 -79 -13 -101 -18 -12 -2
-37 -7 -55 -10 -37 -6 -51 -9 -118 -24 -24 -6 -50 -8 -57 -5 -8 3 -14 1 -14
-4 0 -5 -6 -10 -12 -10 -28 -1 -101 -15 -123 -23 -13 -5 -25 -6 -28 -3 -3 3
-12 1 -19 -3 -7 -5 -17 -9 -23 -11 -5 -1 -20 -4 -32 -7 -13 -3 -31 -8 -41 -10
-9 -2 -37 -9 -62 -16 -68 -19 -90 -20 -90 -4 0 8 -3 13 -7 12 -12 -4 -93 35
-93 44 0 4 -6 5 -14 2 -8 -3 -17 0 -21 5 -3 6 -11 9 -16 6 -5 -4 -12 1 -15 9
-3 9 -10 13 -15 10 -5 -3 -9 0 -9 5 0 6 -3 10 -7 10 -23 -4 -43 2 -38 11 3 6
-1 7 -9 4 -9 -3 -16 -1 -16 6 0 6 -4 9 -9 5 -5 -3 -16 1 -24 9 -8 8 -17 12
-21 9 -3 -4 -6 -1 -6 6 0 7 -5 9 -10 6 -6 -3 -13 1 -16 9 -3 9 -10 14 -14 11
-4 -3 -25 2 -46 11 -75 32 -89 37 -99 40 -5 1 -41 14 -79 28 -38 14 -71 26
-74 26 -4 0 -2 4 4 9 8 8 140 42 224 57 14 3 34 8 45 11 21 7 24 8 65 16 14 3
48 11 75 17 28 7 57 13 65 15 8 2 15 4 15 5 0 1 10 4 23 6 12 2 32 6 45 8 12
2 22 5 22 6 0 1 7 3 15 5 27 7 90 21 135 30 55 12 60 13 60 15 0 1 11 3 25 5
29 4 52 9 105 24 21 6 42 8 46 5 4 -2 11 1 14 7 4 5 13 8 20 5 7 -2 16 -2 20
2 3 3 16 7 28 8 12 1 33 5 47 9 14 4 34 8 45 10 11 2 31 7 45 10 33 8 79 16
110 20 14 2 25 4 25 5 0 2 9 4 20 6 11 2 54 11 95 19 41 9 89 18 105 21 17 2
37 7 45 9 8 2 31 6 50 9 19 3 46 8 60 10 14 3 41 7 60 10 19 3 46 8 60 11 14
3 45 8 70 10 25 3 61 9 80 13 45 10 80 10 80 0z m-2200 -548 c3 -3 14 -7 25
-8 11 -2 22 -8 23 -13 2 -5 8 -7 13 -3 5 3 9 0 9 -6 0 -6 4 -9 8 -6 5 3 20 -1
35 -9 14 -7 28 -10 32 -7 3 3 8 -3 11 -15 4 -13 11 -20 20 -16 8 3 14 -1 14
-8 0 -7 3 -9 7 -6 3 4 12 2 19 -3 6 -6 23 -13 35 -15 13 -3 25 -9 27 -15 2 -6
7 -8 12 -5 10 6 62 -20 54 -28 -3 -3 7 -4 22 -2 17 2 74 -20 160 -61 73 -35
139 -64 147 -64 10 0 14 -9 11 -27 -3 -29 -11 -68 -14 -68 -2 0 -11 -75 -12
-107 -1 -16 -4 -28 -8 -28 -3 0 -6 -21 -7 -47 -1 -27 -4 -115 -8 -198 -8 -193
-9 -1339 -1 -1470 3 -55 9 -127 12 -160 6 -69 13 -207 15 -315 1 -46 -4 -97
-15 -132 -16 -55 -22 -148 -31 -443 -3 -77 -7 -194 -10 -260 -3 -66 -7 -164
-8 -217 -2 -99 -10 -116 -37 -83 -7 9 -15 13 -18 11 -3 -3 -18 4 -33 15 -16
11 -29 18 -29 15 0 -5 -34 10 -123 54 -20 10 -35 15 -32 10 3 -4 -6 -3 -20 3
-14 7 -25 16 -25 20 0 5 -4 5 -10 2 -5 -3 -10 -1 -10 4 0 6 -3 10 -7 10 -13
-3 -93 33 -93 41 0 4 -18 10 -40 14 -22 3 -40 11 -40 18 0 6 -3 8 -7 5 -3 -4
-12 -2 -20 4 -7 6 -13 8 -13 5 0 -4 -15 3 -32 16 -18 13 -35 22 -38 22 -10 -2
-50 20 -50 28 0 4 -6 7 -12 5 -10 -1 -13 27 -12 118 2 121 9 251 29 520 13
163 8 611 -10 930 -16 280 -25 1646 -11 1780 3 39 7 87 8 108 1 20 6 37 11 37
4 0 6 9 2 20 -3 10 -1 28 5 39 9 18 14 19 38 8 15 -6 29 -14 32 -17z m-138
-3677 c4 -10 130 -73 146 -73 7 0 12 -4 12 -10 0 -5 6 -10 13 -10 17 0 241
-110 245 -121 2 -5 7 -7 12 -4 5 3 15 -2 24 -10 8 -9 19 -16 23 -16 19 0 53
-12 53 -18 0 -4 12 -8 27 -9 29 -2 45 -19 36 -37 -4 -5 -3 -7 2 -3 10 9 49
-11 40 -20 -4 -4 -10 -7 -13 -8 -4 0 -23 -8 -43 -17 -20 -9 -48 -18 -63 -21
-15 -3 -35 -11 -44 -18 -13 -11 -14 -11 -7 2 7 12 6 13 -6 3 -17 -13 -96 -37
-121 -36 -10 0 -18 -3 -18 -7 0 -5 -19 -12 -42 -16 -49 -9 -56 -10 -63 -14 -3
-1 -9 -4 -15 -5 -5 -1 -12 -4 -15 -5 -6 -3 -9 -4 -55 -13 -19 -4 -46 -10 -60
-13 -34 -8 -59 -12 -99 -18 -18 -3 -40 -8 -50 -10 -14 -5 -41 -9 -161 -22 -19
-2 -86 -6 -148 -9 l-114 -5 7 133 c4 72 8 162 9 199 0 38 5 68 9 68 5 0 6 4 3
9 -5 8 40 26 57 23 4 -1 7 3 7 9 0 5 4 8 9 5 5 -3 25 1 44 9 19 8 37 11 41 8
3 -4 6 -1 6 6 0 7 5 9 10 6 6 -3 10 -2 10 4 0 6 7 8 15 5 8 -4 15 -1 15 5 0 6
3 10 8 9 4 -1 32 6 62 17 30 11 57 20 60 20 3 0 15 6 28 13 12 7 22 9 22 5 0
-4 5 -2 12 5 13 13 64 16 70 5z m-689 -247 c-2 -23 -4 -82 -5 -132 -1 -89 -2
-91 -25 -86 -12 2 -23 9 -23 14 0 5 -4 7 -9 3 -5 -3 -20 -1 -33 4 -43 17 -63
24 -83 28 -11 2 -22 8 -23 13 -2 6 -8 7 -13 4 -6 -3 -16 0 -24 6 -8 7 -15 10
-15 6 0 -4 -13 0 -30 9 -16 9 -30 13 -30 9 0 -4 -6 -2 -12 3 -11 8 -45 20 -78
27 -43 10 -96 54 -67 57 7 1 28 3 47 4 38 3 106 11 160 21 19 3 46 7 60 9 14
2 25 4 25 5 0 2 35 10 65 14 14 2 32 6 40 9 66 25 77 20 73 -27z"/>
</g>
</svg>
